<?xml version="1.0" encoding="UTF-8"?>
<svg id="picto_pour_fond_clair" data-name="picto pour fond clair" xmlns="http://www.w3.org/2000/svg" viewBox="0 0 1080 1080">
  <defs>
    <style>
      .cls-1 {
        fill: #544898;
      }
    </style>
  </defs>
  <path class="cls-1" d="M539.98,82.38c-252.74,0-457.62,204.88-457.62,457.62s204.88,457.62,457.62,457.62,457.65-204.88,457.65-457.62S792.76,82.38,539.98,82.38ZM462.8,809.13c0,29.28-23.72,53.04-53,53.04s-53.04-23.76-53.04-53.04V270.87c0-29.28,23.76-53.04,53.04-53.04,14.66,0,27.9,5.95,37.5,15.54,9.56,9.6,15.51,22.84,15.51,37.5v538.25ZM580.13,579.03c0,22.18-17.96,40.18-40.15,40.18s-40.15-18-40.15-40.18v-78.07c0-22.18,18-40.18,40.15-40.18,11.09,0,21.11,4.49,28.4,11.78,7.25,7.25,11.74,17.31,11.74,28.4v78.07ZM723.21,687.65c0,29.28-23.72,53.04-53,53.04s-53.04-23.76-53.04-53.04v-295.3c0-29.28,23.76-53.04,53.04-53.04,14.62,0,27.9,5.95,37.5,15.54,9.6,9.6,15.51,22.87,15.51,37.5v295.3Z"/>
</svg>